<?xml version="1.0" standalone="no"?>
<!DOCTYPE svg PUBLIC "-//W3C//DTD SVG 20010904//EN"
 "http://www.w3.org/TR/2001/REC-SVG-20010904/DTD/svg10.dtd">
<svg version="1.0" xmlns="http://www.w3.org/2000/svg"
 width="50.000000pt" height="50.000000pt" viewBox="0 0 50.000000 50.000000"
 preserveAspectRatio="xMidYMid meet">

<g transform="translate(0.000000,50.000000) scale(0.100000,-0.100000)"
fill="currentColor" stroke="none">
<path d="M205 462 c-16 -10 -42 -22 -57 -25 -16 -4 -28 -12 -28 -17 0 -6 -13
-10 -29 -10 -36 0 -53 -20 -49 -57 2 -22 8 -28 28 -29 43 -2 46 -6 10 -13 -28
-5 -36 -11 -38 -31 -1 -14 2 -31 7 -39 7 -11 13 -11 32 3 13 9 35 16 49 16 24
0 24 -1 -8 -20 -37 -23 -72 -75 -72 -108 0 -29 22 -71 50 -97 20 -18 22 -18
31 -2 13 23 72 52 168 82 121 39 171 92 171 182 0 44 -28 110 -58 136 -51 46
-156 60 -207 29z m59 -27 c-31 -16 -64 -24 -89 -24 -27 1 -32 3 -15 6 14 3 32
11 40 18 21 17 40 23 79 24 l34 1 -49 -25z m146 -33 c53 -53 52 -146 -2 -208
-17 -19 -32 -33 -34 -31 -3 2 3 21 12 43 22 53 14 127 -17 160 -13 13 -43 30
-68 36 -36 9 -41 13 -25 19 10 4 38 8 62 8 35 1 49 -5 72 -27z m-272 -24 c9
-9 15 -9 24 0 15 15 78 16 78 2 0 -6 -7 -13 -15 -16 -8 -4 -15 -18 -15 -34 0
-36 -15 -47 -70 -52 -25 -3 -53 -8 -62 -12 -13 -6 -18 -4 -18 8 0 10 9 16 24
16 13 0 29 7 36 15 18 22 -6 48 -37 40 -13 -3 -23 -1 -23 5 0 5 5 10 10 10 6
0 10 7 10 15 0 18 41 20 58 3z m176 -2 c44 -18 66 -51 66 -99 0 -71 -37 -128
-92 -142 -39 -10 -36 10 7 71 20 28 35 61 35 77 0 34 -24 82 -47 96 -26 15 -8
13 31 -3z m-25 -29 c28 -34 24 -74 -13 -134 -20 -32 -36 -66 -36 -76 0 -24
-62 -50 -73 -30 -15 25 4 72 39 100 47 35 67 77 59 119 -6 35 4 44 24 21z
m-44 -56 c-4 -19 -22 -43 -45 -62 -45 -36 -65 -78 -57 -118 4 -20 1 -33 -12
-45 -16 -15 -19 -15 -35 3 -9 10 -19 35 -23 55 -5 32 -2 40 34 73 22 21 55 47
74 58 21 13 38 32 44 52 12 41 30 27 20 -16z"/>
</g>
</svg>
